<?xml version="1.0" encoding="UTF-8" standalone="no"?>
<!DOCTYPE svg PUBLIC "-//W3C//DTD SVG 1.1//EN" "http://www.w3.org/Graphics/SVG/1.1/DTD/svg11.dtd">
<svg width="100%" height="100%" viewBox="0 0 23 24" version="1.1" xmlns="http://www.w3.org/2000/svg" xmlns:xlink="http://www.w3.org/1999/xlink" xml:space="preserve" xmlns:serif="http://www.serif.com/" style="fill-rule:evenodd;clip-rule:evenodd;stroke-linejoin:round;stroke-miterlimit:2;">
    <g transform="matrix(1,0,0,1,-1,-0.09222)">
        <path d="M23,5.94C23.01,5.854 23.01,5.766 23,5.68C23.004,5.65 23.004,5.62 23,5.59C22.952,5.481 22.888,5.38 22.81,5.29L17.81,0.29C17.72,0.212 17.619,0.148 17.51,0.1L17.42,0.1C17.334,0.09 17.246,0.09 17.16,0.1L4,0.1C2.391,0.099 1.054,1.392 1,3L1,21C1,22.646 2.354,24 4,24L20,24C21.646,24 23,22.646 23,21L23,5.94ZM19.59,5L19,5C18.451,5 18,4.549 18,4L18,3.41L19.59,5ZM20,22L4,22C3.451,22 3,21.549 3,21L3,3C3,2.451 3.451,2 4,2L16,2L16,4C16,5.646 17.354,7 19,7L21,7L21,21C21,21.549 20.549,22 20,22Z" style="fill:rgb(187,187,187);fill-rule:nonzero;"/>
        <path d="M14.29,14.29L13,15.59L13,6C13,5.451 12.549,5 12,5C11.451,5 11,5.451 11,6L11,15.59L9.71,14.29C9.522,14.102 9.266,13.996 9,13.996C8.449,13.996 7.996,14.449 7.996,15C7.996,15.266 8.102,15.522 8.29,15.71L11.29,18.71C11.385,18.801 11.497,18.872 11.62,18.92C11.862,19.027 12.138,19.027 12.38,18.92C12.503,18.872 12.615,18.801 12.71,18.71L15.71,15.71C15.898,15.522 16.004,15.266 16.004,15C16.004,14.449 15.551,13.996 15,13.996C14.734,13.996 14.478,14.102 14.29,14.29Z" style="fill:rgb(187,187,187);fill-rule:nonzero;"/>
    </g>
</svg>
