<?xml version="1.0" encoding="UTF-8" standalone="no"?>
<!DOCTYPE svg PUBLIC "-//W3C//DTD SVG 1.1//EN" "http://www.w3.org/Graphics/SVG/1.1/DTD/svg11.dtd">
<svg width="100%" height="100%" viewBox="0 0 20 20" version="1.1" xmlns="http://www.w3.org/2000/svg" xmlns:xlink="http://www.w3.org/1999/xlink" xml:space="preserve" xmlns:serif="http://www.serif.com/" style="fill-rule:evenodd;clip-rule:evenodd;stroke-miterlimit:10;">
    <g transform="matrix(1.07134,0,0,1.07447,-1.07134,-1.07447)">
        <path d="M8.5,3C11.517,3 14,5.483 14,8.5C14,11.517 11.517,14 8.5,14C5.483,14 3,11.517 3,8.5C3.005,5.485 5.485,3.005 8.5,3M8.5,1C4.386,1 1,4.386 1,8.5C1,12.614 4.386,16 8.5,16C12.614,16 16,12.614 16,8.5C16,4.386 12.614,1 8.5,1Z" style="fill:rgb(187,187,187);fill-rule:nonzero;"/>
    </g>
    <g transform="matrix(1.07134,0,0,1.07447,-1.07134,-0.0744664)">
        <path d="M13,13L18,18" style="fill:none;fill-rule:nonzero;stroke:rgb(187,187,187);stroke-width:2px;"/>
    </g>
</svg>
